<svg width="16" height="17" viewBox="0 0 16 17" fill="none" xmlns="http://www.w3.org/2000/svg">
<path d="M8 9C6.9 9 5.95833 8.60833 5.175 7.825C4.39167 7.04167 4 6.1 4 5V1.5C4 1.08333 4.14583 0.729167 4.4375 0.4375C4.72917 0.145833 5.08333 0 5.5 0C5.75 0 5.9875 0.0583333 6.2125 0.175C6.4375 0.291667 6.61667 0.458333 6.75 0.675C6.88333 0.458333 7.0625 0.291667 7.2875 0.175C7.5125 0.0583333 7.75 0 8 0C8.25 0 8.4875 0.0583333 8.7125 0.175C8.9375 0.291667 9.11667 0.458333 9.25 0.675C9.38333 0.458333 9.5625 0.291667 9.7875 0.175C10.0125 0.0583333 10.25 0 10.5 0C10.9167 0 11.2708 0.145833 11.5625 0.4375C11.8542 0.729167 12 1.08333 12 1.5V5C12 6.1 11.6083 7.04167 10.825 7.825C10.0417 8.60833 9.1 9 8 9ZM8 7C8.55 7 9.02083 6.80417 9.4125 6.4125C9.80417 6.02083 10 5.55 10 5V2.5H6V5C6 5.55 6.19583 6.02083 6.5875 6.4125C6.97917 6.80417 7.45 7 8 7ZM0 17V14.2C0 13.6333 0.145833 13.1125 0.4375 12.6375C0.729167 12.1625 1.11667 11.8 1.6 11.55C2.63333 11.0333 3.68333 10.6458 4.75 10.3875C5.81667 10.1292 6.9 10 8 10C9.1 10 10.1833 10.1292 11.25 10.3875C12.3167 10.6458 13.3667 11.0333 14.4 11.55C14.8833 11.8 15.2708 12.1625 15.5625 12.6375C15.8542 13.1125 16 13.6333 16 14.2V17H0ZM2 15H14V14.2C14 14.0167 13.9542 13.85 13.8625 13.7C13.7708 13.55 13.65 13.4333 13.5 13.35C12.6 12.9 11.6917 12.5625 10.775 12.3375C9.85833 12.1125 8.93333 12 8 12C7.06667 12 6.14167 12.1125 5.225 12.3375C4.30833 12.5625 3.4 12.9 2.5 13.35C2.35 13.4333 2.22917 13.55 2.1375 13.7C2.04583 13.85 2 14.0167 2 14.2V15Z" fill="#434655"/>
</svg>
